<svg width="24" height="24" viewBox="0 0 24 24" fill="none" xmlns="http://www.w3.org/2000/svg">
<path d="M12 5.561L19 11.161V19H14V15H10V19H5V11.642C4.99994 11.492 5.03362 11.344 5.09853 11.2088C5.16344 11.0736 5.25793 10.9547 5.375 10.861L12 5.561ZM12 3L4.126 9.3C3.77487 9.58088 3.49138 9.93709 3.29648 10.3423C3.10157 10.7475 3.00025 11.1914 3 11.641V19C3 19.5304 3.21071 20.0391 3.58579 20.4142C3.96086 20.7893 4.46957 21 5 21H19C19.5304 21 20.0391 20.7893 20.4142 20.4142C20.7893 20.0391 21 19.5304 21 19V11.161C21 10.8612 20.9325 10.5653 20.8027 10.2951C20.6729 10.0249 20.484 9.78735 20.25 9.6L12 3Z" fill="#2FF5BD"/>
</svg>
