<svg width="24" height="24" viewBox="0 0 24 24" fill="none" xmlns="http://www.w3.org/2000/svg">
<path fill-rule="evenodd" clip-rule="evenodd" d="M8 9C8 10.0609 8.42143 11.0783 9.17157 11.8284C9.92172 12.5786 10.9391 13 12 13C13.0609 13 14.0783 12.5786 14.8284 11.8284C15.5786 11.0783 16 10.0609 16 9C16 7.93913 15.5786 6.92172 14.8284 6.17157C14.0783 5.42143 13.0609 5 12 5C10.9391 5 9.92172 5.42143 9.17157 6.17157C8.42143 6.92172 8 7.93913 8 9ZM10 9C10 9.53043 10.2107 10.0391 10.5858 10.4142C10.9609 10.7893 11.4696 11 12 11C12.5304 11 13.0391 10.7893 13.4142 10.4142C13.7893 10.0391 14 9.53043 14 9C14 8.46957 13.7893 7.96086 13.4142 7.58579C13.0391 7.21071 12.5304 7 12 7C11.4696 7 10.9609 7.21071 10.5858 7.58579C10.2107 7.96086 10 8.46957 10 9Z" fill="#2FF5BD"/>
<path fill-rule="evenodd" clip-rule="evenodd" d="M12 1C18.075 1 23 5.925 23 12C23 18.075 18.075 23 12 23C5.925 23 1 18.075 1 12C1 5.925 5.925 1 12 1ZM21 12C21 14.09 20.287 16.014 19.092 17.542C18.2528 16.4399 17.1701 15.5467 15.9286 14.9323C14.687 14.3179 13.3203 13.9988 11.935 14C10.5677 13.9987 9.21809 14.3095 7.98907 14.9088C6.76005 15.508 5.68404 16.3799 4.843 17.458C3.97655 16.3216 3.39316 14.9952 3.14111 13.5886C2.88905 12.182 2.97557 10.7355 3.39351 9.36898C3.81144 8.00243 4.54878 6.75505 5.54451 5.73004C6.54025 4.70503 7.76575 3.93186 9.11962 3.47451C10.4735 3.01716 11.9168 2.88877 13.3301 3.09997C14.7435 3.31117 16.0862 3.85589 17.2472 4.68905C18.4083 5.52222 19.3542 6.61987 20.0068 7.8912C20.6594 9.16252 20.9998 10.571 21 12ZM12 21C14.0661 21.0031 16.0697 20.2923 17.672 18.988C17.0271 18.0647 16.1687 17.3109 15.1698 16.7907C14.171 16.2705 13.0612 15.9992 11.935 16C10.8228 15.9991 9.72651 16.2636 8.73707 16.7714C7.74763 17.2793 6.89363 18.0159 6.246 18.92C7.8607 20.2667 9.89742 21.0029 12 21Z" fill="#2FF5BD"/>
</svg>
