<svg width="82" height="72" viewBox="0 0 82 72" fill="none" xmlns="http://www.w3.org/2000/svg">
<path fill-rule="evenodd" clip-rule="evenodd" d="M12 6H70C73.3137 6 76 8.68629 76 12V18C76 19.6569 77.3431 21 79 21C80.6569 21 82 19.6569 82 18V12C82 5.37258 76.6274 0 70 0H12C5.37258 0 0 5.37258 0 12V18C0 19.6569 1.34315 21 3 21C4.65685 21 6 19.6569 6 18V12C6 8.68629 8.68629 6 12 6ZM6 30C6 28.3431 4.65685 27 3 27C1.34315 27 0 28.3431 0 30V60C0 66.6274 5.37258 72 12 72H70C76.6274 72 82 66.6274 82 60V30C82 28.3431 80.6569 27 79 27C77.3431 27 76 28.3431 76 30V60C76 63.3137 73.3137 66 70 66H12C8.68629 66 6 63.3137 6 60V30Z" fill="#F8F8F8"/>
<path fill-rule="evenodd" clip-rule="evenodd" d="M12 30C12 28.3431 13.3431 27 15 27H79C80.6569 27 82 28.3431 82 30C82 31.6569 80.6569 33 79 33H15C13.3431 33 12 31.6569 12 30Z" fill="#F8F8F8"/>
<path fill-rule="evenodd" clip-rule="evenodd" d="M0 18C0 16.3431 1.34315 15 3 15H67C68.6569 15 70 16.3431 70 18C70 19.6569 68.6569 21 67 21H3C1.34315 21 0 19.6569 0 18Z" fill="#F8F8F8"/>
<path d="M46.5 48.134C47.1667 48.5189 47.1667 49.4811 46.5 49.866L39 54.1962C38.3333 54.5811 37.5 54.0999 37.5 53.3301L37.5 44.6699C37.5 43.9001 38.3333 43.4189 39 43.8038L46.5 48.134Z" fill="#F8F8F8"/>
</svg>
